<?xml version="1.0" encoding="utf-8"?>
<!-- Generator: Adobe Illustrator 18.1.0, SVG Export Plug-In . SVG Version: 6.00 Build 0)  -->
<svg version="1.1" id="Ğ¡Ğ»Ğ¾Ğ¹_1" xmlns="http://www.w3.org/2000/svg" xmlns:xlink="http://www.w3.org/1999/xlink" x="0px" y="0px"
	 viewBox="0 0 2005.899 601.75" enable-background="new 0 0 2005.899 601.75" xml:space="preserve">
<g>
	<g>
		<path d="M0,97.994h196.75v33.223H35.803v82.318h148.764v31.374H35.803v91.916h163.714v32.301H0V97.994z"/>
		<path fill="#1BB4E2" d="M422.642,369.125h-44.138l95.963-139.096L384.512,97.994h45.792l68.407,103.729l67.863-103.729h43.586
			l-89.909,132.032l94.309,139.1h-45.43l-72.238-111.482L422.642,369.125z"/>
		<polygon fill="#EA5B38" points="496.892,257.644 569.13,369.125 614.56,369.125 520.251,230.026 610.16,97.994 566.574,97.994 
			498.711,201.722 479.52,230.03 		"/>
		<polygon points="953.584,287.917 981.887,369.125 1022.124,369.125 923.718,97.994 882.251,97.994 780.148,369.125 817.8,369.125 
			847.2,287.917 858.036,258.013 901.414,138.23 943.163,258.013 		"/>
		<path d="M1206.446,97.994h36.73v238.831h136.025v32.301h-172.755V97.994z"/>
		<path d="M1567.87,97.994h36.73v238.831h136.025v32.301H1567.87V97.994z"/>
	</g>
	<g>
		<path d="M9.406,545.907H3.051v-76.269h6.355v30.189c2.051-3.387,4.858-5.946,8.425-7.68c3.563-1.726,7.29-2.593,11.174-2.593
			c4.167,0,7.783,0.794,10.857,2.383c3.07,1.589,5.614,3.708,7.627,6.355c2.013,2.65,3.513,5.74,4.503,9.269
			c0.985,3.533,1.482,7.203,1.482,11.018c0,4.025-0.458,7.802-1.379,11.335c-0.917,3.533-2.383,6.584-4.396,9.162
			s-4.571,4.61-7.68,6.091c-3.105,1.482-6.882,2.223-11.331,2.223c-1.768,0-3.567-0.248-5.404-0.741
			c-1.837-0.493-3.62-1.199-5.35-2.12c-1.73-0.917-3.319-2.062-4.766-3.441s-2.631-2.983-3.548-4.82H9.406V545.907z M9.406,518.261
			c0,3.319,0.409,6.408,1.218,9.269c0.813,2.86,1.997,5.331,3.552,7.413c1.551,2.085,3.494,3.727,5.824,4.927
			c2.33,1.203,4.98,1.803,7.944,1.803c2.685,0,5.156-0.477,7.416-1.432c2.261-0.955,4.235-2.345,5.931-4.186
			c1.696-1.833,3.021-4.075,3.972-6.725c0.955-2.647,1.432-5.702,1.432-9.162c0.141-3.46-0.141-6.691-0.848-9.693
			c-0.707-3.002-1.837-5.629-3.391-7.89c-1.554-2.261-3.548-4.044-5.984-5.35s-5.278-1.959-8.528-1.959
			c-2.895,0-5.492,0.619-7.783,1.852c-2.295,1.237-4.239,2.899-5.828,4.98s-2.807,4.518-3.655,7.31
			C9.83,512.204,9.406,515.152,9.406,518.261z"/>
		<path d="M117.449,479.067v-9.429h6.993v9.429H117.449z M117.77,545.907v-54.871h6.355v54.871H117.77z"/>
		<path d="M209.396,546.117c-0.775,0.141-1.799,0.39-3.07,0.745c-1.272,0.351-2.685,0.527-4.239,0.527
			c-3.177,0-5.595-0.794-7.256-2.383c-1.657-1.589-2.486-4.43-2.486-8.528v-40.145h-7.733v-5.297h7.733v-15.253h6.355v15.253h10.273
			v5.297h-10.273v37.606c0,1.34,0.034,2.505,0.107,3.494c0.069,0.989,0.279,1.803,0.634,2.437c0.351,0.634,0.901,1.096,1.642,1.379
			s1.783,0.424,3.124,0.424c0.848,0,1.711-0.073,2.597-0.214c0.882-0.141,1.745-0.317,2.593-0.531V546.117z"/>
		<path d="M308.227,508.301c-1.13-4.094-3.074-7.29-5.828-9.586c-2.753-2.295-6.248-3.441-10.487-3.441
			c-3.25,0-6.038,0.672-8.367,2.013c-2.33,1.34-4.239,3.124-5.721,5.347c-1.482,2.226-2.578,4.732-3.284,7.523
			c-0.707,2.788-1.058,5.595-1.058,8.421c0,2.895,0.332,5.721,1.004,8.474c0.672,2.753,1.749,5.224,3.231,7.413
			c1.486,2.192,3.391,3.937,5.721,5.243c2.33,1.31,5.156,1.963,8.474,1.963c4.732,0,8.528-1.306,11.388-3.922
			c2.86-2.612,4.678-6.214,5.454-10.804h6.779c-0.565,3.036-1.466,5.809-2.7,8.314c-1.237,2.509-2.826,4.663-4.766,6.462
			c-1.944,1.803-4.254,3.196-6.939,4.186s-5.755,1.482-9.215,1.482c-4.38,0-8.157-0.741-11.335-2.223
			c-3.177-1.482-5.79-3.513-7.837-6.091c-2.051-2.578-3.567-5.629-4.556-9.162c-0.989-3.533-1.482-7.31-1.482-11.335
			c0-3.815,0.546-7.47,1.642-10.964c1.092-3.494,2.7-6.584,4.82-9.269c2.116-2.681,4.747-4.82,7.89-6.408
			c3.143-1.589,6.76-2.383,10.857-2.383c6.355,0,11.495,1.52,15.413,4.556s6.37,7.768,7.363,14.191H308.227z"/>
		<path d="M399.857,547.388c-3.533-0.069-6.832-0.706-9.906-1.906c-3.07-1.199-5.755-3.002-8.05-5.404
			c-2.295-2.398-4.113-5.4-5.454-9.001c-1.34-3.601-2.013-7.802-2.013-12.607c0-4.025,0.531-7.787,1.589-11.281
			s2.647-6.55,4.766-9.162c2.12-2.612,4.766-4.678,7.947-6.198c3.177-1.516,6.882-2.276,11.121-2.276
			c4.308,0,8.05,0.76,11.228,2.276c3.177,1.52,5.828,3.567,7.944,6.145c2.12,2.578,3.689,5.633,4.716,9.162
			c1.02,3.533,1.535,7.31,1.535,11.335c0,4.38-0.603,8.333-1.803,11.866c-1.199,3.533-2.914,6.565-5.137,9.108
			s-4.907,4.503-8.05,5.877C407.147,546.701,403.668,547.388,399.857,547.388z M418.501,518.471c0-3.246-0.355-6.282-1.062-9.108
			s-1.799-5.278-3.284-7.363c-1.482-2.081-3.387-3.724-5.717-4.927c-2.333-1.199-5.194-1.799-8.581-1.799
			c-3.319,0-6.164,0.653-8.528,1.959c-2.368,1.306-4.289,3.036-5.774,5.19c-1.482,2.154-2.578,4.625-3.281,7.417
			c-0.71,2.788-1.062,5.664-1.062,8.631c0,3.391,0.405,6.515,1.218,9.376s1.994,5.312,3.548,7.363
			c1.554,2.047,3.498,3.636,5.828,4.766s5.014,1.696,8.05,1.696c3.319,0,6.16-0.653,8.528-1.963
			c2.364-1.306,4.289-3.051,5.771-5.243c1.486-2.188,2.578-4.659,3.284-7.413C418.146,524.299,418.501,521.438,418.501,518.471z"/>
		<path d="M487.35,479.067v-9.429h6.993v9.429H487.35z M487.671,545.907v-54.871h6.355v54.871H487.671z"/>
		<path d="M566.369,545.907h-6.355v-54.871h6.355v7.627c2.543-2.681,5.175-4.873,7.894-6.565c2.715-1.696,5.984-2.543,9.796-2.543
			c3.391,0,6.534,0.58,9.429,1.749c2.895,1.165,5.331,3.193,7.31,6.087c1.341,1.978,2.135,4.01,2.383,6.091
			c0.244,2.085,0.37,4.258,0.37,6.515v35.91h-6.355v-35.803c0-4.942-1.096-8.65-3.284-11.121c-2.188-2.475-5.828-3.708-10.911-3.708
			c-1.978,0-3.777,0.302-5.404,0.897c-1.623,0.603-3.09,1.398-4.396,2.387c-1.306,0.989-2.417,2.116-3.334,3.387
			c-0.92,1.272-1.627,2.612-2.12,4.025c-0.638,1.768-1.023,3.46-1.165,5.087c-0.145,1.623-0.214,3.387-0.214,5.293V545.907z"/>
		<path d="M751.85,519.953c0,2.967,0.39,5.774,1.165,8.425c0.779,2.647,1.925,4.942,3.445,6.882
			c1.516,1.944,3.441,3.498,5.774,4.663c2.33,1.165,5.01,1.749,8.05,1.749c4.163,0,7.73-1.096,10.697-3.284s4.942-5.297,5.931-9.322
			h7.099c-0.779,2.612-1.803,5.03-3.074,7.256c-1.272,2.223-2.86,4.167-4.766,5.824c-1.906,1.661-4.167,2.952-6.779,3.869
			c-2.612,0.917-5.652,1.375-9.108,1.375c-4.38,0-8.157-0.741-11.335-2.223c-3.177-1.482-5.793-3.513-7.84-6.091
			s-3.567-5.614-4.556-9.108c-0.989-3.498-1.482-7.256-1.482-11.281c0-4.025,0.584-7.802,1.749-11.335
			c1.165-3.533,2.822-6.622,4.976-9.269c2.154-2.65,4.785-4.732,7.894-6.252c3.105-1.516,6.637-2.276,10.594-2.276
			c7.554,0,13.485,2.593,17.793,7.787c4.308,5.19,6.427,12.729,6.359,22.612H751.85z M787.653,514.66
			c0-2.685-0.37-5.209-1.111-7.577c-0.741-2.364-1.837-4.411-3.284-6.141s-3.265-3.109-5.454-4.132
			c-2.188-1.023-4.697-1.535-7.52-1.535c-2.826,0-5.316,0.527-7.47,1.589c-2.154,1.058-3.991,2.471-5.507,4.235
			c-1.52,1.768-2.738,3.815-3.655,6.145c-0.92,2.33-1.52,4.804-1.803,7.416H787.653z"/>
		<path d="M850.789,491.035h6.882l17.797,47.031l17.797-47.031h6.882l-21.287,54.871h-7.096L850.789,491.035z"/>
		<path d="M963.281,519.953c0,2.967,0.382,5.774,1.161,8.425c0.779,2.647,1.925,4.942,3.445,6.882
			c1.52,1.944,3.445,3.498,5.774,4.663s5.01,1.749,8.05,1.749c4.163,0,7.73-1.096,10.701-3.284c2.964-2.188,4.942-5.297,5.927-9.322
			h7.096c-0.779,2.612-1.795,5.03-3.07,7.256c-1.268,2.223-2.857,4.167-4.766,5.824c-1.91,1.661-4.17,2.952-6.783,3.869
			c-2.612,0.917-5.645,1.375-9.104,1.375c-4.384,0-8.157-0.741-11.335-2.223c-3.177-1.482-5.79-3.513-7.837-6.091
			c-2.055-2.578-3.567-5.614-4.56-9.108c-0.985-3.498-1.482-7.256-1.482-11.281c0-4.025,0.581-7.802,1.749-11.335
			c1.161-3.533,2.826-6.622,4.98-9.269c2.154-2.65,4.781-4.732,7.89-6.252c3.109-1.516,6.637-2.276,10.594-2.276
			c7.554,0,13.489,2.593,17.797,7.787c4.308,5.19,6.424,12.729,6.355,22.612H963.281z M999.08,514.66
			c0-2.685-0.367-5.209-1.107-7.577c-0.741-2.364-1.841-4.411-3.284-6.141c-1.451-1.73-3.269-3.109-5.461-4.132
			c-2.184-1.023-4.697-1.535-7.516-1.535c-2.826,0-5.316,0.527-7.47,1.589c-2.154,1.058-3.987,2.471-5.507,4.235
			c-1.52,1.768-2.742,3.815-3.659,6.145s-1.512,4.804-1.795,7.416H999.08z"/>
		<path d="M1074.719,545.907h-6.355v-54.871h6.355v10.277h0.214c1.764-4.38,4.04-7.432,6.836-9.166
			c2.788-1.726,6.477-2.593,11.068-2.593v6.886c-3.605-0.069-6.569,0.493-8.898,1.696c-2.33,1.199-4.186,2.822-5.56,4.873
			c-1.382,2.047-2.33,4.464-2.864,7.252c-0.527,2.792-0.794,5.706-0.794,8.742V545.907z"/>
		<path d="M1152.68,560.736c0.848,0.141,1.711,0.283,2.597,0.424c0.878,0.141,1.78,0.214,2.696,0.214
			c1.764,0,3.216-0.565,4.346-1.692c1.13-1.13,2.07-2.49,2.811-4.075c0.741-1.589,1.36-3.242,1.848-4.969
			c0.496-1.73,1.062-3.193,1.696-4.392l-21.287-55.211h7.096l17.583,47.138l17.583-47.138h6.89l-20.447,54.13
			c-1.268,3.46-2.49,6.569-3.651,9.322c-1.169,2.753-2.406,5.098-3.712,7.042c-1.306,1.944-2.75,3.426-4.338,4.449
			c-1.589,1.023-3.483,1.535-5.667,1.535c-1.13,0-2.215-0.069-3.231-0.21c-1.031-0.141-1.963-0.317-2.811-0.531V560.736z"/>
		<path d="M1302.248,537.432l14.405-46.397h6.462l-17.797,54.871h-6.775l-11.976-46.08h-0.206l-12.183,46.08h-7.63l-16.735-54.871
			h6.355l14.199,46.821l12.71-46.821h7.096L1302.248,537.432z"/>
		<path d="M1382.118,545.907v-76.269h6.355v29.024c2.536-2.681,5.171-4.873,7.89-6.565c2.719-1.696,5.981-2.543,9.8-2.543
			c3.384,0,6.531,0.58,9.425,1.749c2.895,1.165,5.331,3.193,7.31,6.087c1.337,1.978,2.131,4.01,2.383,6.091
			c0.244,2.085,0.367,4.258,0.367,6.515v35.91h-6.355v-35.803c0-4.942-1.092-8.65-3.284-11.121
			c-2.184-2.475-5.82-3.708-10.907-3.708c-1.978,0-3.781,0.302-5.4,0.897c-1.627,0.603-3.093,1.398-4.399,2.387
			c-1.306,0.989-2.421,2.116-3.338,3.387c-0.917,1.272-1.619,2.612-2.116,4.025c-0.634,1.768-1.023,3.46-1.169,5.087
			c-0.137,1.623-0.206,3.387-0.206,5.293v29.555H1382.118z"/>
		<path d="M1494.717,519.953c0,2.967,0.382,5.774,1.161,8.425c0.779,2.647,1.925,4.942,3.445,6.882
			c1.52,1.944,3.445,3.498,5.774,4.663s5.01,1.749,8.05,1.749c4.163,0,7.73-1.096,10.701-3.284c2.964-2.188,4.942-5.297,5.927-9.322
			h7.096c-0.779,2.612-1.795,5.03-3.07,7.256c-1.268,2.223-2.857,4.167-4.766,5.824c-1.91,1.661-4.17,2.952-6.783,3.869
			s-5.644,1.375-9.104,1.375c-4.384,0-8.157-0.741-11.335-2.223c-3.177-1.482-5.79-3.513-7.837-6.091
			c-2.055-2.578-3.567-5.614-4.56-9.108c-0.985-3.498-1.482-7.256-1.482-11.281c0-4.025,0.581-7.802,1.749-11.335
			c1.161-3.533,2.826-6.622,4.98-9.269c2.154-2.65,4.781-4.732,7.89-6.252c3.109-1.516,6.637-2.276,10.594-2.276
			c7.554,0,13.489,2.593,17.797,7.787c4.308,5.19,6.424,12.729,6.355,22.612H1494.717z M1530.517,514.66
			c0-2.685-0.367-5.209-1.107-7.577c-0.741-2.364-1.841-4.411-3.284-6.141c-1.451-1.73-3.269-3.109-5.461-4.132
			c-2.185-1.023-4.697-1.535-7.516-1.535c-2.826,0-5.316,0.527-7.47,1.589c-2.154,1.058-3.987,2.471-5.507,4.235
			c-1.52,1.768-2.742,3.815-3.659,6.145c-0.917,2.33-1.512,4.804-1.795,7.416H1530.517z"/>
		<path d="M1606.156,545.907h-6.355v-54.871h6.355v10.277h0.214c1.764-4.38,4.041-7.432,6.836-9.166
			c2.788-1.726,6.477-2.593,11.068-2.593v6.886c-3.605-0.069-6.569,0.493-8.898,1.696c-2.33,1.199-4.186,2.822-5.56,4.873
			c-1.382,2.047-2.33,4.464-2.864,7.252c-0.527,2.792-0.794,5.706-0.794,8.742V545.907z"/>
		<path d="M1688.463,519.953c0,2.967,0.382,5.774,1.161,8.425c0.779,2.647,1.925,4.942,3.445,6.882
			c1.52,1.944,3.445,3.498,5.774,4.663s5.01,1.749,8.05,1.749c4.163,0,7.73-1.096,10.701-3.284c2.964-2.188,4.942-5.297,5.927-9.322
			h7.096c-0.779,2.612-1.795,5.03-3.07,7.256c-1.268,2.223-2.857,4.167-4.766,5.824c-1.91,1.661-4.17,2.952-6.783,3.869
			s-5.644,1.375-9.104,1.375c-4.384,0-8.157-0.741-11.335-2.223c-3.177-1.482-5.79-3.513-7.837-6.091
			c-2.055-2.578-3.567-5.614-4.56-9.108c-0.985-3.498-1.482-7.256-1.482-11.281c0-4.025,0.581-7.802,1.749-11.335
			c1.161-3.533,2.826-6.622,4.98-9.269c2.154-2.65,4.781-4.732,7.89-6.252c3.109-1.516,6.637-2.276,10.594-2.276
			c7.554,0,13.489,2.593,17.797,7.787c4.308,5.19,6.424,12.729,6.355,22.612H1688.463z M1724.262,514.66
			c0-2.685-0.367-5.209-1.108-7.577c-0.741-2.364-1.841-4.411-3.284-6.141c-1.451-1.73-3.269-3.109-5.461-4.132
			c-2.184-1.023-4.697-1.535-7.516-1.535c-2.826,0-5.316,0.527-7.47,1.589c-2.154,1.058-3.987,2.471-5.507,4.235
			c-1.52,1.768-2.742,3.815-3.659,6.145c-0.917,2.33-1.512,4.804-1.795,7.416H1724.262z"/>
	</g>
</g>
<g>
	<rect x="1740.625" y="0" fill="#EA5B38" width="265.071" height="105.581"/>
	
		<text transform="matrix(1 0 0 1 1768.4678 81.7721)" fill="#FFFFFF" font-family="'HelveticaNeue-Bold'" font-size="93.8557" letter-spacing="2">beta</text>
</g>
</svg>
