<?xml version="1.0" encoding="utf-8"?>
<!-- Generator: Adobe Illustrator 18.1.0, SVG Export Plug-In . SVG Version: 6.00 Build 0)  -->
<svg version="1.1" id="Слой_1" xmlns="http://www.w3.org/2000/svg" xmlns:xlink="http://www.w3.org/1999/xlink" x="0px" y="0px"
	 viewBox="0 0 306.14 116.22" enable-background="new 0 0 306.14 116.22" xml:space="preserve">
<g>
	<g>
		<g>
			<path d="M7.155,19.224h32.758v5.532H13.117v13.706h24.769v5.224H13.117v15.304h27.258v5.378H7.155V19.224z"/>
			<path fill="#7BBDE3" d="M77.524,64.366h-7.349l15.977-23.159L71.175,19.224H78.8l11.39,17.27l11.299-17.27h7.257l-14.97,21.983
				l15.702,23.16h-7.564L89.886,45.805L77.524,64.366z"/>
			<polygon fill="#DF8852" points="89.886,45.805 101.914,64.366 109.478,64.366 93.775,41.207 108.745,19.224 101.488,19.224 
				90.189,36.494 86.994,41.207 			"/>
			<polygon points="165.924,50.845 170.636,64.366 177.336,64.366 160.951,19.224 154.047,19.224 137.047,64.366 143.316,64.366 
				148.211,50.845 150.016,45.867 157.238,25.923 164.189,45.867 			"/>
			<path d="M208.025,19.224h6.115v39.765h22.648v5.378h-28.763V19.224z"/>
			<path d="M268.2,19.224h6.115v39.765h22.648v5.378H268.2V19.224z"/>
		</g>
	</g>
	<g>
		<path d="M8.301,82.229h1.518v4.623c0.342-0.445,0.752-0.785,1.228-1.02c0.476-0.233,0.993-0.351,1.55-0.351
			c1.161,0,2.103,0.397,2.826,1.192s1.084,1.968,1.084,3.518c0,1.469-0.357,2.688-1.071,3.66c-0.714,0.972-1.704,1.457-2.969,1.457
			c-0.708,0-1.306-0.171-1.794-0.512c-0.29-0.202-0.601-0.526-0.932-0.972v1.188h-1.44V82.229z M14.271,92.923
			c0.421-0.67,0.631-1.555,0.631-2.653c0-0.978-0.21-1.787-0.631-2.429c-0.42-0.643-1.04-0.963-1.858-0.963
			c-0.714,0-1.339,0.263-1.875,0.789s-0.805,1.394-0.805,2.603c0,0.873,0.11,1.581,0.331,2.125c0.412,1.023,1.18,1.535,2.306,1.535
			C13.216,93.93,13.85,93.594,14.271,92.923z"/>
		<path d="M26.66,82.271h1.587v1.77H26.66V82.271z M26.66,85.768h1.587v9.246H26.66V85.768z"/>
		<path d="M39.267,83.131h1.579v2.593h1.483v1.275h-1.483v6.063c0,0.323,0.11,0.54,0.33,0.65c0.122,0.063,0.324,0.095,0.607,0.095
			c0.075,0,0.156-0.002,0.243-0.005c0.087-0.004,0.188-0.014,0.304-0.029v1.24c-0.179,0.052-0.366,0.09-0.56,0.112
			c-0.194,0.023-0.403,0.035-0.629,0.035c-0.729,0-1.223-0.187-1.483-0.56s-0.391-0.857-0.391-1.453v-6.149H38.01v-1.275h1.257
			V83.131z"/>
		<path d="M58.376,86.219c0.656,0.509,1.051,1.385,1.184,2.628h-1.518c-0.093-0.572-0.304-1.048-0.633-1.427
			s-0.859-0.568-1.587-0.568c-0.995,0-1.706,0.485-2.134,1.455c-0.277,0.63-0.416,1.407-0.416,2.331c0,0.93,0.196,1.712,0.59,2.348
			c0.393,0.635,1.012,0.953,1.856,0.953c0.647,0,1.161-0.197,1.54-0.592s0.641-0.935,0.785-1.62h1.518
			c-0.174,1.231-0.607,2.132-1.301,2.701c-0.694,0.57-1.582,0.854-2.663,0.854c-1.214,0-2.183-0.443-2.905-1.331
			c-0.723-0.888-1.084-1.996-1.084-3.326c0-1.631,0.396-2.9,1.188-3.808c0.792-0.908,1.801-1.362,3.027-1.362
			C56.868,85.455,57.72,85.71,58.376,86.219z"/>
		<path d="M76.201,86.651c0.821,0.797,1.231,1.97,1.231,3.519c0,1.496-0.362,2.732-1.085,3.709
			c-0.723,0.977-1.846,1.465-3.367,1.465c-1.27,0-2.277-0.433-3.023-1.296c-0.747-0.864-1.12-2.023-1.12-3.479
			c0-1.56,0.394-2.802,1.18-3.727c0.786-0.925,1.843-1.387,3.169-1.387C74.375,85.455,75.38,85.854,76.201,86.651z M75.231,92.825
			c0.38-0.782,0.57-1.653,0.57-2.612c0-0.866-0.137-1.57-0.412-2.113c-0.435-0.855-1.184-1.282-2.247-1.282
			c-0.943,0-1.629,0.363-2.058,1.091c-0.429,0.729-0.644,1.606-0.644,2.634c0,0.988,0.214,1.811,0.644,2.47
			c0.429,0.658,1.109,0.987,2.041,0.987C74.149,93.999,74.851,93.607,75.231,92.825z"/>
		<path d="M87.699,82.271h1.587v1.77h-1.587V82.271z M87.699,85.768h1.587v9.246h-1.587V85.768z"/>
		<path d="M99.995,85.724h1.483v1.319c0.439-0.544,0.905-0.935,1.396-1.172c0.492-0.236,1.038-0.355,1.64-0.355
			c1.318,0,2.208,0.46,2.671,1.38c0.254,0.503,0.382,1.223,0.382,2.159v5.959h-1.587v-5.854c0-0.567-0.084-1.023-0.251-1.371
			c-0.278-0.578-0.781-0.867-1.509-0.867c-0.37,0-0.674,0.038-0.911,0.113c-0.428,0.127-0.804,0.381-1.128,0.763
			c-0.26,0.307-0.429,0.623-0.507,0.95c-0.078,0.326-0.117,0.794-0.117,1.4v4.866h-1.561V85.724z"/>
		<path d="M137.245,85.979c0.615,0.31,1.083,0.71,1.405,1.202c0.311,0.468,0.517,1.015,0.621,1.639
			c0.092,0.429,0.138,1.11,0.138,2.047h-6.757c0.028,0.945,0.25,1.704,0.663,2.275c0.413,0.57,1.053,0.856,1.919,0.856
			c0.809,0,1.455-0.271,1.937-0.811c0.27-0.313,0.461-0.677,0.573-1.089h1.535c-0.041,0.341-0.175,0.721-0.403,1.141
			c-0.229,0.419-0.483,0.762-0.764,1.027c-0.471,0.463-1.053,0.775-1.748,0.937c-0.373,0.093-0.795,0.14-1.266,0.14
			c-1.149,0-2.123-0.421-2.922-1.263c-0.799-0.841-1.198-2.02-1.198-3.534c0-1.492,0.402-2.703,1.207-3.635
			c0.805-0.931,1.856-1.396,3.155-1.396C135.995,85.516,136.63,85.671,137.245,85.979z M137.804,89.627
			c-0.063-0.676-0.209-1.217-0.438-1.622c-0.424-0.751-1.132-1.127-2.125-1.127c-0.711,0-1.307,0.259-1.789,0.776
			c-0.481,0.518-0.737,1.175-0.765,1.973H137.804z"/>
		<path d="M150.503,85.724l2.48,7.563l2.585-7.563h1.708l-3.497,9.29h-1.664l-3.426-9.29H150.503z"/>
		<path d="M172.704,85.979c0.615,0.31,1.083,0.71,1.405,1.202c0.311,0.468,0.518,1.015,0.621,1.639
			c0.092,0.429,0.138,1.11,0.138,2.047h-6.757c0.028,0.945,0.249,1.704,0.662,2.275c0.413,0.57,1.054,0.856,1.92,0.856
			c0.809,0,1.454-0.271,1.936-0.811c0.271-0.313,0.461-0.677,0.574-1.089h1.535c-0.041,0.341-0.176,0.721-0.403,1.141
			c-0.229,0.419-0.483,0.762-0.765,1.027c-0.471,0.463-1.054,0.775-1.748,0.937c-0.373,0.093-0.794,0.14-1.265,0.14
			c-1.149,0-2.124-0.421-2.923-1.263c-0.799-0.841-1.197-2.02-1.197-3.534c0-1.492,0.402-2.703,1.206-3.635
			c0.805-0.931,1.856-1.396,3.155-1.396C171.454,85.516,172.089,85.671,172.704,85.979z M173.264,89.627
			c-0.063-0.676-0.21-1.217-0.439-1.622c-0.424-0.751-1.132-1.127-2.124-1.127c-0.711,0-1.308,0.259-1.789,0.776
			s-0.736,1.175-0.766,1.973H173.264z"/>
		<path d="M185.238,85.724h1.483v1.605c0.121-0.312,0.419-0.692,0.893-1.141c0.475-0.448,1.021-0.673,1.64-0.673
			c0.029,0,0.078,0.003,0.147,0.009s0.188,0.018,0.355,0.035v1.647c-0.092-0.017-0.178-0.028-0.256-0.034s-0.163-0.009-0.256-0.009
			c-0.786,0-1.391,0.253-1.812,0.759s-0.633,1.089-0.633,1.748v5.343h-1.562V85.724z"/>
		<path d="M205.267,85.724h1.726c-0.22,0.597-0.708,1.956-1.466,4.079c-0.566,1.597-1.041,2.898-1.422,3.905
			c-0.901,2.368-1.537,3.813-1.907,4.333c-0.369,0.521-1.005,0.78-1.906,0.78c-0.22,0-0.389-0.009-0.507-0.025
			c-0.118-0.018-0.265-0.05-0.438-0.096v-1.423c0.271,0.075,0.468,0.122,0.589,0.139c0.121,0.018,0.228,0.026,0.32,0.026
			c0.288,0,0.501-0.048,0.637-0.143c0.136-0.096,0.249-0.213,0.342-0.351c0.028-0.047,0.133-0.283,0.312-0.71
			c0.179-0.428,0.309-0.745,0.39-0.952l-3.435-9.563h1.77l2.489,7.567L205.267,85.724z"/>
		<path d="M217.414,85.724l1.787,7.321l1.812-7.321h1.752l1.821,7.277l1.9-7.277h1.561l-2.697,9.29h-1.622l-1.891-7.19l-1.83,7.19
			h-1.622l-2.681-9.29H217.414z"/>
		<path d="M237.867,82.229h1.562v4.753c0.37-0.468,0.703-0.798,0.998-0.988c0.503-0.33,1.13-0.494,1.882-0.494
			c1.348,0,2.261,0.471,2.741,1.413c0.26,0.515,0.39,1.229,0.39,2.143v5.959h-1.604v-5.854c0-0.683-0.087-1.183-0.26-1.501
			c-0.283-0.509-0.815-0.763-1.597-0.763c-0.647,0-1.234,0.223-1.761,0.667c-0.525,0.445-0.789,1.287-0.789,2.524v4.927h-1.562
			V82.229z"/>
		<path d="M261.834,85.979c0.615,0.31,1.083,0.71,1.405,1.202c0.311,0.468,0.518,1.015,0.621,1.639
			c0.092,0.429,0.138,1.11,0.138,2.047h-6.757c0.028,0.945,0.249,1.704,0.662,2.275c0.413,0.57,1.054,0.856,1.92,0.856
			c0.809,0,1.454-0.271,1.936-0.811c0.271-0.313,0.461-0.677,0.574-1.089h1.535c-0.041,0.341-0.176,0.721-0.403,1.141
			c-0.229,0.419-0.483,0.762-0.765,1.027c-0.471,0.463-1.054,0.775-1.748,0.937c-0.373,0.093-0.794,0.14-1.265,0.14
			c-1.149,0-2.124-0.421-2.923-1.263c-0.799-0.841-1.197-2.02-1.197-3.534c0-1.492,0.402-2.703,1.206-3.635
			c0.805-0.931,1.856-1.396,3.155-1.396C260.584,85.516,261.219,85.671,261.834,85.979z M262.394,89.627
			c-0.063-0.676-0.21-1.217-0.439-1.622c-0.424-0.751-1.132-1.127-2.124-1.127c-0.711,0-1.308,0.259-1.789,0.776
			s-0.736,1.175-0.766,1.973H262.394z"/>
		<path d="M274.368,85.724h1.483v1.605c0.121-0.312,0.419-0.692,0.893-1.141c0.475-0.448,1.021-0.673,1.64-0.673
			c0.029,0,0.078,0.003,0.147,0.009s0.188,0.018,0.355,0.035v1.647c-0.092-0.017-0.178-0.028-0.256-0.034s-0.163-0.009-0.256-0.009
			c-0.786,0-1.391,0.253-1.812,0.759s-0.633,1.089-0.633,1.748v5.343h-1.562V85.724z"/>
		<path d="M294.327,85.979c0.615,0.31,1.083,0.71,1.405,1.202c0.311,0.468,0.518,1.015,0.621,1.639
			c0.092,0.429,0.138,1.11,0.138,2.047h-6.757c0.028,0.945,0.249,1.704,0.662,2.275c0.413,0.57,1.054,0.856,1.92,0.856
			c0.809,0,1.454-0.271,1.936-0.811c0.271-0.313,0.461-0.677,0.574-1.089h1.535c-0.041,0.341-0.176,0.721-0.403,1.141
			c-0.229,0.419-0.483,0.762-0.765,1.027c-0.471,0.463-1.054,0.775-1.748,0.937c-0.373,0.093-0.794,0.14-1.265,0.14
			c-1.149,0-2.124-0.421-2.923-1.263c-0.799-0.841-1.197-2.02-1.197-3.534c0-1.492,0.402-2.703,1.206-3.635
			c0.805-0.931,1.856-1.396,3.155-1.396C293.077,85.516,293.712,85.671,294.327,85.979z M294.887,89.627
			c-0.063-0.676-0.21-1.217-0.439-1.622c-0.424-0.751-1.132-1.127-2.124-1.127c-0.711,0-1.308,0.259-1.789,0.776
			s-0.736,1.175-0.766,1.973H294.887z"/>
	</g>
</g>
<g display="none">
	<g display="inline">
		<g>
			<path fill="#FFFFFF" d="M7.155,19.224h32.758v5.532H13.117v13.706h24.769v5.224H13.117v15.304h27.258v5.378H7.155V19.224z"/>
			<path fill="#7BBDE3" d="M77.524,64.366h-7.349l15.977-23.159L71.175,19.224H78.8l11.39,17.27l11.299-17.27h7.257l-14.97,21.983
				l15.702,23.16h-7.564L89.886,45.805L77.524,64.366z"/>
			<polygon fill="#DF8852" points="89.886,45.805 101.914,64.366 109.478,64.366 93.775,41.207 108.745,19.224 101.488,19.224 
				90.189,36.494 86.994,41.207 			"/>
			<polygon fill="#FFFFFF" points="165.924,50.845 170.636,64.366 177.336,64.366 160.951,19.224 154.047,19.224 137.047,64.366 
				143.316,64.366 148.211,50.845 150.016,45.867 157.238,25.923 164.189,45.867 			"/>
			<path fill="#FFFFFF" d="M208.025,19.224h6.115v39.765h22.648v5.378h-28.763V19.224z"/>
			<path fill="#FFFFFF" d="M268.2,19.224h6.115v39.765h22.648v5.378H268.2V19.224z"/>
		</g>
	</g>
	<g display="inline">
		<path fill="#FFFFFF" d="M8.301,82.229h1.518v4.623c0.342-0.445,0.752-0.785,1.228-1.02c0.476-0.233,0.993-0.351,1.55-0.351
			c1.161,0,2.103,0.397,2.826,1.192s1.084,1.968,1.084,3.518c0,1.469-0.357,2.688-1.071,3.66c-0.714,0.972-1.704,1.457-2.969,1.457
			c-0.708,0-1.306-0.171-1.794-0.512c-0.29-0.202-0.601-0.526-0.932-0.972v1.188h-1.44V82.229z M14.271,92.923
			c0.421-0.67,0.631-1.555,0.631-2.653c0-0.978-0.21-1.787-0.631-2.429c-0.42-0.643-1.04-0.963-1.858-0.963
			c-0.714,0-1.339,0.263-1.875,0.789s-0.805,1.394-0.805,2.603c0,0.873,0.11,1.581,0.331,2.125c0.412,1.023,1.18,1.535,2.306,1.535
			C13.216,93.93,13.85,93.594,14.271,92.923z"/>
		<path fill="#FFFFFF" d="M26.66,82.271h1.587v1.77H26.66V82.271z M26.66,85.768h1.587v9.246H26.66V85.768z"/>
		<path fill="#FFFFFF" d="M39.267,83.131h1.579v2.593h1.483v1.275h-1.483v6.063c0,0.323,0.11,0.54,0.33,0.65
			c0.122,0.063,0.324,0.095,0.607,0.095c0.075,0,0.156-0.002,0.243-0.005c0.087-0.004,0.188-0.014,0.304-0.029v1.24
			c-0.179,0.052-0.366,0.09-0.56,0.112c-0.194,0.023-0.403,0.035-0.629,0.035c-0.729,0-1.223-0.187-1.483-0.56
			s-0.391-0.857-0.391-1.453v-6.149H38.01v-1.275h1.257V83.131z"/>
		<path fill="#FFFFFF" d="M58.376,86.219c0.656,0.509,1.051,1.385,1.184,2.628h-1.518c-0.093-0.572-0.304-1.048-0.633-1.427
			s-0.859-0.568-1.587-0.568c-0.995,0-1.706,0.485-2.134,1.455c-0.277,0.63-0.416,1.407-0.416,2.331c0,0.93,0.196,1.712,0.59,2.348
			c0.393,0.635,1.012,0.953,1.856,0.953c0.647,0,1.161-0.197,1.54-0.592s0.641-0.935,0.785-1.62h1.518
			c-0.174,1.231-0.607,2.132-1.301,2.701c-0.694,0.57-1.582,0.854-2.663,0.854c-1.214,0-2.183-0.443-2.905-1.331
			c-0.723-0.888-1.084-1.996-1.084-3.326c0-1.631,0.396-2.9,1.188-3.808c0.792-0.908,1.801-1.362,3.027-1.362
			C56.868,85.455,57.72,85.71,58.376,86.219z"/>
		<path fill="#FFFFFF" d="M76.201,86.651c0.821,0.797,1.231,1.97,1.231,3.519c0,1.496-0.362,2.732-1.085,3.709
			c-0.723,0.977-1.846,1.465-3.367,1.465c-1.27,0-2.277-0.433-3.023-1.296c-0.747-0.864-1.12-2.023-1.12-3.479
			c0-1.56,0.394-2.802,1.18-3.727c0.786-0.925,1.843-1.387,3.169-1.387C74.375,85.455,75.38,85.854,76.201,86.651z M75.231,92.825
			c0.38-0.782,0.57-1.653,0.57-2.612c0-0.866-0.137-1.57-0.412-2.113c-0.435-0.855-1.184-1.282-2.247-1.282
			c-0.943,0-1.629,0.363-2.058,1.091c-0.429,0.729-0.644,1.606-0.644,2.634c0,0.988,0.214,1.811,0.644,2.47
			c0.429,0.658,1.109,0.987,2.041,0.987C74.149,93.999,74.851,93.607,75.231,92.825z"/>
		<path fill="#FFFFFF" d="M87.699,82.271h1.587v1.77h-1.587V82.271z M87.699,85.768h1.587v9.246h-1.587V85.768z"/>
		<path fill="#FFFFFF" d="M99.995,85.724h1.483v1.319c0.439-0.544,0.905-0.935,1.396-1.172c0.492-0.236,1.038-0.355,1.64-0.355
			c1.318,0,2.208,0.46,2.671,1.38c0.254,0.503,0.382,1.223,0.382,2.159v5.959h-1.587v-5.854c0-0.567-0.084-1.023-0.251-1.371
			c-0.278-0.578-0.781-0.867-1.509-0.867c-0.37,0-0.674,0.038-0.911,0.113c-0.428,0.127-0.804,0.381-1.128,0.763
			c-0.26,0.307-0.429,0.623-0.507,0.95c-0.078,0.326-0.117,0.794-0.117,1.4v4.866h-1.561V85.724z"/>
		<path fill="#FFFFFF" d="M137.245,85.979c0.615,0.31,1.083,0.71,1.405,1.202c0.311,0.468,0.517,1.015,0.621,1.639
			c0.092,0.429,0.138,1.11,0.138,2.047h-6.757c0.028,0.945,0.25,1.704,0.663,2.275c0.413,0.57,1.053,0.856,1.919,0.856
			c0.809,0,1.455-0.271,1.937-0.811c0.27-0.313,0.461-0.677,0.573-1.089h1.535c-0.041,0.341-0.175,0.721-0.403,1.141
			c-0.229,0.419-0.483,0.762-0.764,1.027c-0.471,0.463-1.053,0.775-1.748,0.937c-0.373,0.093-0.795,0.14-1.266,0.14
			c-1.149,0-2.123-0.421-2.922-1.263c-0.799-0.841-1.198-2.02-1.198-3.534c0-1.492,0.402-2.703,1.207-3.635
			c0.805-0.931,1.856-1.396,3.155-1.396C135.995,85.516,136.63,85.671,137.245,85.979z M137.804,89.627
			c-0.063-0.676-0.209-1.217-0.438-1.622c-0.424-0.751-1.132-1.127-2.125-1.127c-0.711,0-1.307,0.259-1.789,0.776
			c-0.481,0.518-0.737,1.175-0.765,1.973H137.804z"/>
		<path fill="#FFFFFF" d="M150.503,85.724l2.48,7.563l2.585-7.563h1.708l-3.497,9.29h-1.664l-3.426-9.29H150.503z"/>
		<path fill="#FFFFFF" d="M172.704,85.979c0.615,0.31,1.083,0.71,1.405,1.202c0.311,0.468,0.518,1.015,0.621,1.639
			c0.092,0.429,0.138,1.11,0.138,2.047h-6.757c0.028,0.945,0.249,1.704,0.662,2.275c0.413,0.57,1.054,0.856,1.92,0.856
			c0.809,0,1.454-0.271,1.936-0.811c0.271-0.313,0.461-0.677,0.574-1.089h1.535c-0.041,0.341-0.176,0.721-0.403,1.141
			c-0.229,0.419-0.483,0.762-0.765,1.027c-0.471,0.463-1.054,0.775-1.748,0.937c-0.373,0.093-0.794,0.14-1.265,0.14
			c-1.149,0-2.124-0.421-2.923-1.263c-0.799-0.841-1.197-2.02-1.197-3.534c0-1.492,0.402-2.703,1.206-3.635
			c0.805-0.931,1.856-1.396,3.155-1.396C171.454,85.516,172.089,85.671,172.704,85.979z M173.264,89.627
			c-0.063-0.676-0.21-1.217-0.439-1.622c-0.424-0.751-1.132-1.127-2.124-1.127c-0.711,0-1.308,0.259-1.789,0.776
			s-0.736,1.175-0.766,1.973H173.264z"/>
		<path fill="#FFFFFF" d="M185.238,85.724h1.483v1.605c0.121-0.312,0.419-0.692,0.893-1.141c0.475-0.448,1.021-0.673,1.64-0.673
			c0.029,0,0.078,0.003,0.147,0.009s0.188,0.018,0.355,0.035v1.647c-0.092-0.017-0.178-0.028-0.256-0.034s-0.163-0.009-0.256-0.009
			c-0.786,0-1.391,0.253-1.812,0.759s-0.633,1.089-0.633,1.748v5.343h-1.562V85.724z"/>
		<path fill="#FFFFFF" d="M205.267,85.724h1.726c-0.22,0.597-0.708,1.956-1.466,4.079c-0.566,1.597-1.041,2.898-1.422,3.905
			c-0.901,2.368-1.537,3.813-1.907,4.333c-0.369,0.521-1.005,0.78-1.906,0.78c-0.22,0-0.389-0.009-0.507-0.025
			c-0.118-0.018-0.265-0.05-0.438-0.096v-1.423c0.271,0.075,0.468,0.122,0.589,0.139c0.121,0.018,0.228,0.026,0.32,0.026
			c0.288,0,0.501-0.048,0.637-0.143c0.136-0.096,0.249-0.213,0.342-0.351c0.028-0.047,0.133-0.283,0.312-0.71
			c0.179-0.428,0.309-0.745,0.39-0.952l-3.435-9.563h1.77l2.489,7.567L205.267,85.724z"/>
		<path fill="#FFFFFF" d="M217.414,85.724l1.787,7.321l1.812-7.321h1.752l1.821,7.277l1.9-7.277h1.561l-2.697,9.29h-1.622
			l-1.891-7.19l-1.83,7.19h-1.622l-2.681-9.29H217.414z"/>
		<path fill="#FFFFFF" d="M237.867,82.229h1.562v4.753c0.37-0.468,0.703-0.798,0.998-0.988c0.503-0.33,1.13-0.494,1.882-0.494
			c1.348,0,2.261,0.471,2.741,1.413c0.26,0.515,0.39,1.229,0.39,2.143v5.959h-1.604v-5.854c0-0.683-0.087-1.183-0.26-1.501
			c-0.283-0.509-0.815-0.763-1.597-0.763c-0.647,0-1.234,0.223-1.761,0.667c-0.525,0.445-0.789,1.287-0.789,2.524v4.927h-1.562
			V82.229z"/>
		<path fill="#FFFFFF" d="M261.834,85.979c0.615,0.31,1.083,0.71,1.405,1.202c0.311,0.468,0.518,1.015,0.621,1.639
			c0.092,0.429,0.138,1.11,0.138,2.047h-6.757c0.028,0.945,0.249,1.704,0.662,2.275c0.413,0.57,1.054,0.856,1.92,0.856
			c0.809,0,1.454-0.271,1.936-0.811c0.271-0.313,0.461-0.677,0.574-1.089h1.535c-0.041,0.341-0.176,0.721-0.403,1.141
			c-0.229,0.419-0.483,0.762-0.765,1.027c-0.471,0.463-1.054,0.775-1.748,0.937c-0.373,0.093-0.794,0.14-1.265,0.14
			c-1.149,0-2.124-0.421-2.923-1.263c-0.799-0.841-1.197-2.02-1.197-3.534c0-1.492,0.402-2.703,1.206-3.635
			c0.805-0.931,1.856-1.396,3.155-1.396C260.584,85.516,261.219,85.671,261.834,85.979z M262.394,89.627
			c-0.063-0.676-0.21-1.217-0.439-1.622c-0.424-0.751-1.132-1.127-2.124-1.127c-0.711,0-1.308,0.259-1.789,0.776
			s-0.736,1.175-0.766,1.973H262.394z"/>
		<path fill="#FFFFFF" d="M274.368,85.724h1.483v1.605c0.121-0.312,0.419-0.692,0.893-1.141c0.475-0.448,1.021-0.673,1.64-0.673
			c0.029,0,0.078,0.003,0.147,0.009s0.188,0.018,0.355,0.035v1.647c-0.092-0.017-0.178-0.028-0.256-0.034s-0.163-0.009-0.256-0.009
			c-0.786,0-1.391,0.253-1.812,0.759s-0.633,1.089-0.633,1.748v5.343h-1.562V85.724z"/>
		<path fill="#FFFFFF" d="M294.327,85.979c0.615,0.31,1.083,0.71,1.405,1.202c0.311,0.468,0.518,1.015,0.621,1.639
			c0.092,0.429,0.138,1.11,0.138,2.047h-6.757c0.028,0.945,0.249,1.704,0.662,2.275c0.413,0.57,1.054,0.856,1.92,0.856
			c0.809,0,1.454-0.271,1.936-0.811c0.271-0.313,0.461-0.677,0.574-1.089h1.535c-0.041,0.341-0.176,0.721-0.403,1.141
			c-0.229,0.419-0.483,0.762-0.765,1.027c-0.471,0.463-1.054,0.775-1.748,0.937c-0.373,0.093-0.794,0.14-1.265,0.14
			c-1.149,0-2.124-0.421-2.923-1.263c-0.799-0.841-1.197-2.02-1.197-3.534c0-1.492,0.402-2.703,1.206-3.635
			c0.805-0.931,1.856-1.396,3.155-1.396C293.077,85.516,293.712,85.671,294.327,85.979z M294.887,89.627
			c-0.063-0.676-0.21-1.217-0.439-1.622c-0.424-0.751-1.132-1.127-2.124-1.127c-0.711,0-1.308,0.259-1.789,0.776
			s-0.736,1.175-0.766,1.973H294.887z"/>
	</g>
</g>
</svg>
