<?xml version="1.0" encoding="utf-8"?>
<!-- Generator: Adobe Illustrator 16.0.0, SVG Export Plug-In . SVG Version: 6.00 Build 0)  -->
<!DOCTYPE svg PUBLIC "-//W3C//DTD SVG 1.1//EN" "http://www.w3.org/Graphics/SVG/1.1/DTD/svg11.dtd">
<svg version="1.1" id="Layer_1" xmlns="http://www.w3.org/2000/svg" xmlns:xlink="http://www.w3.org/1999/xlink" x="0px" y="0px"
	 width="222.549px" height="61.125px" viewBox="0 0 222.549 61.125" enable-background="new 0 0 222.549 61.125"
	 xml:space="preserve">
<polygon fill="#FFFFFF" points="0,0 0,34.667 25.51,34.667 25.51,30.536 4.577,30.536 4.577,18.784 23.598,18.784 23.598,14.773 
	4.577,14.773 4.577,4.248 25.156,4.248 25.156,0 "/>
<polygon fill="#7FBCE3" points="72.44,0 63.763,13.262 55.017,0 49.162,0 60.663,16.881 48.394,34.667 54.037,34.667 63.53,20.412 
	72.767,34.667 78.575,34.667 66.517,16.881 78.013,0 "/>
<polygon fill="#DA8B3D" points="72.44,0 63.763,13.262 61.31,16.881 63.53,20.412 72.767,34.667 78.575,34.667 66.517,16.881 
	78.013,0 "/>
<polygon fill="#FFFFFF" points="112.801,0 99.747,34.667 104.561,34.667 108.32,24.283 109.705,20.46 115.252,5.144 120.59,20.46 
	121.922,24.283 125.541,34.667 130.685,34.667 118.103,0 "/>
<polygon fill="#FFFFFF" points="154.251,0 154.251,34.667 176.339,34.667 176.339,30.536 158.947,30.536 158.947,0 "/>
<polygon fill="#FFFFFF" points="200.462,0 200.462,34.667 222.55,34.667 222.55,30.536 205.157,30.536 205.157,0 "/>
<g>
	<defs>
		<rect id="SVGID_1_" y="0" width="222.549" height="61.124"/>
	</defs>
	<clipPath id="SVGID_2_">
		<use xlink:href="#SVGID_1_"  overflow="visible"/>
	</clipPath>
	<path clip-path="url(#SVGID_2_)" fill="#FFFFFF" d="M0.879,48.383h1.166v3.55c0.263-0.342,0.577-0.603,0.942-0.783
		c0.367-0.18,0.763-0.27,1.191-0.27c0.891,0,1.615,0.306,2.17,0.916c0.554,0.61,0.833,1.511,0.833,2.701
		c0,1.128-0.275,2.064-0.823,2.811c-0.548,0.746-1.308,1.119-2.28,1.119c-0.544,0-1.003-0.131-1.378-0.393
		c-0.222-0.155-0.461-0.404-0.715-0.746v0.912H0.879V48.383z M5.464,56.595c0.322-0.515,0.484-1.194,0.484-2.038
		c0-0.751-0.162-1.372-0.484-1.865c-0.323-0.493-0.799-0.738-1.428-0.738c-0.548,0-1.027,0.201-1.439,0.605s-0.618,1.07-0.618,1.998
		c0,0.671,0.084,1.215,0.254,1.632c0.316,0.786,0.906,1.18,1.77,1.18C4.653,57.369,5.141,57.111,5.464,56.595"/>
	<path clip-path="url(#SVGID_2_)" fill="#FFFFFF" d="M14.978,48.417h1.219v1.359h-1.219V48.417z M14.978,51.1h1.219v7.102h-1.219
		V51.1z"/>
	<path clip-path="url(#SVGID_2_)" fill="#FFFFFF" d="M24.66,49.076h1.212v1.991h1.139v0.979h-1.139v4.655
		c0,0.249,0.084,0.416,0.253,0.5c0.094,0.049,0.249,0.073,0.467,0.073c0.057,0,0.119-0.001,0.186-0.004
		c0.067-0.003,0.144-0.011,0.233-0.023v0.953c-0.138,0.04-0.281,0.069-0.43,0.086c-0.149,0.019-0.31,0.027-0.483,0.027
		c-0.559,0-0.939-0.144-1.138-0.43c-0.2-0.286-0.3-0.658-0.3-1.115v-4.723h-0.966v-0.979h0.966V49.076z"/>
	<path clip-path="url(#SVGID_2_)" fill="#FFFFFF" d="M39.333,51.447c0.504,0.391,0.807,1.063,0.909,2.018h-1.166
		c-0.071-0.438-0.233-0.805-0.486-1.096c-0.253-0.29-0.659-0.436-1.219-0.436c-0.764,0-1.309,0.373-1.639,1.118
		c-0.212,0.482-0.319,1.079-0.319,1.789c0,0.714,0.15,1.314,0.453,1.803c0.302,0.487,0.777,0.731,1.425,0.731
		c0.497,0,0.892-0.151,1.183-0.454c0.291-0.304,0.491-0.718,0.602-1.244h1.166c-0.134,0.945-0.467,1.638-0.999,2.074
		c-0.533,0.438-1.215,0.656-2.045,0.656c-0.932,0-1.677-0.34-2.231-1.021c-0.556-0.683-0.833-1.533-0.833-2.555
		c0-1.253,0.304-2.227,0.913-2.925c0.608-0.697,1.383-1.045,2.324-1.045C38.175,50.861,38.83,51.056,39.333,51.447"/>
	<path clip-path="url(#SVGID_2_)" fill="#FFFFFF" d="M53.021,51.779c0.631,0.612,0.946,1.514,0.946,2.702
		c0,1.149-0.278,2.099-0.834,2.848c-0.554,0.75-1.417,1.125-2.585,1.125c-0.975,0-1.749-0.332-2.322-0.994
		c-0.573-0.663-0.859-1.555-0.859-2.673c0-1.197,0.302-2.151,0.905-2.861c0.605-0.71,1.416-1.065,2.435-1.065
		C51.62,50.86,52.391,51.166,53.021,51.779 M52.277,56.52c0.292-0.601,0.438-1.27,0.438-2.006c0-0.665-0.105-1.206-0.316-1.623
		c-0.334-0.657-0.909-0.985-1.726-0.985c-0.724,0-1.251,0.28-1.581,0.839c-0.329,0.56-0.494,1.233-0.494,2.022
		c0,0.758,0.165,1.39,0.494,1.896c0.33,0.506,0.852,0.759,1.568,0.759C51.446,57.421,51.985,57.121,52.277,56.52"/>
	<path clip-path="url(#SVGID_2_)" fill="#FFFFFF" d="M61.851,48.417h1.219v1.359h-1.219V48.417z M61.851,51.1h1.219v7.102h-1.219
		V51.1z"/>
	<path clip-path="url(#SVGID_2_)" fill="#FFFFFF" d="M71.292,51.067h1.139v1.013c0.338-0.418,0.695-0.718,1.073-0.899
		c0.377-0.183,0.797-0.273,1.259-0.273c1.011,0,1.696,0.354,2.05,1.06c0.196,0.387,0.293,0.938,0.293,1.658v4.576h-1.218v-4.496
		c0-0.435-0.065-0.786-0.194-1.053c-0.213-0.443-0.598-0.666-1.158-0.666c-0.284,0-0.517,0.029-0.699,0.087
		c-0.329,0.099-0.618,0.293-0.866,0.586c-0.2,0.236-0.33,0.479-0.39,0.729c-0.06,0.251-0.09,0.609-0.09,1.076v3.736h-1.199V51.067z"
		/>
	<path clip-path="url(#SVGID_2_)" fill="#FFFFFF" d="M99.897,51.263c0.473,0.238,0.832,0.545,1.079,0.923
		c0.239,0.359,0.398,0.779,0.477,1.259c0.07,0.328,0.106,0.853,0.106,1.572h-5.189c0.022,0.726,0.192,1.309,0.51,1.746
		c0.316,0.439,0.807,0.658,1.473,0.658c0.621,0,1.117-0.208,1.487-0.622c0.207-0.241,0.354-0.52,0.44-0.837h1.179
		c-0.031,0.262-0.134,0.554-0.31,0.876c-0.176,0.322-0.371,0.585-0.587,0.789c-0.361,0.356-0.808,0.595-1.341,0.72
		c-0.287,0.071-0.611,0.106-0.972,0.106c-0.883,0-1.631-0.323-2.244-0.969c-0.614-0.646-0.92-1.551-0.92-2.715
		c0-1.146,0.308-2.075,0.927-2.791c0.618-0.715,1.425-1.071,2.422-1.071C98.938,50.908,99.425,51.026,99.897,51.263 M100.328,54.064
		c-0.049-0.52-0.161-0.935-0.337-1.245c-0.326-0.577-0.87-0.865-1.632-0.865c-0.546,0-1.004,0.198-1.373,0.595
		c-0.37,0.398-0.566,0.903-0.588,1.516H100.328z"/>
	<polygon clip-path="url(#SVGID_2_)" fill="#FFFFFF" points="110.08,51.067 111.984,56.875 113.97,51.067 115.281,51.067 
		112.597,58.201 111.318,58.201 108.687,51.067 	"/>
	<path clip-path="url(#SVGID_2_)" fill="#FFFFFF" d="M127.128,51.263c0.473,0.238,0.832,0.545,1.079,0.923
		c0.239,0.359,0.398,0.779,0.477,1.259c0.071,0.328,0.106,0.853,0.106,1.572h-5.188c0.021,0.726,0.191,1.309,0.51,1.746
		c0.316,0.439,0.808,0.658,1.473,0.658c0.621,0,1.118-0.208,1.488-0.622c0.207-0.241,0.353-0.52,0.438-0.837h1.181
		c-0.031,0.262-0.136,0.554-0.312,0.876c-0.175,0.322-0.371,0.585-0.587,0.789c-0.361,0.356-0.808,0.595-1.341,0.72
		c-0.287,0.071-0.611,0.106-0.972,0.106c-0.884,0-1.632-0.323-2.244-0.969c-0.614-0.646-0.92-1.551-0.92-2.715
		c0-1.146,0.309-2.075,0.927-2.791c0.618-0.715,1.425-1.071,2.422-1.071C126.168,50.908,126.657,51.026,127.128,51.263
		 M127.558,54.064c-0.049-0.52-0.16-0.935-0.337-1.245c-0.326-0.577-0.869-0.865-1.631-0.865c-0.546,0-1.004,0.198-1.374,0.595
		c-0.37,0.398-0.565,0.903-0.588,1.516H127.558z"/>
	<path clip-path="url(#SVGID_2_)" fill="#FFFFFF" d="M136.753,51.067h1.141v1.232c0.092-0.239,0.32-0.531,0.685-0.876
		s0.784-0.517,1.259-0.517c0.022,0,0.062,0.003,0.113,0.007c0.054,0.005,0.146,0.014,0.274,0.027v1.265
		c-0.072-0.013-0.138-0.021-0.197-0.026c-0.061-0.004-0.126-0.006-0.196-0.006c-0.604,0-1.067,0.193-1.392,0.582
		c-0.325,0.389-0.487,0.836-0.487,1.343v4.103h-1.199V51.067z"/>
	<path clip-path="url(#SVGID_2_)" fill="#FFFFFF" d="M152.133,51.067h1.325c-0.169,0.458-0.544,1.502-1.126,3.132
		c-0.434,1.227-0.799,2.227-1.092,2.999c-0.692,1.819-1.18,2.929-1.463,3.328c-0.285,0.399-0.773,0.599-1.465,0.599
		c-0.168,0-0.298-0.007-0.39-0.02c-0.091-0.014-0.203-0.038-0.336-0.073v-1.093c0.208,0.058,0.359,0.093,0.452,0.107
		c0.093,0.013,0.175,0.02,0.246,0.02c0.222,0,0.384-0.037,0.489-0.11c0.104-0.072,0.19-0.163,0.262-0.269
		c0.023-0.036,0.103-0.217,0.24-0.545c0.137-0.328,0.237-0.572,0.299-0.731l-2.637-7.344h1.357l1.912,5.811L152.133,51.067z"/>
	<polygon clip-path="url(#SVGID_2_)" fill="#FFFFFF" points="161.462,51.067 162.834,56.689 164.227,51.067 165.571,51.067 
		166.971,56.655 168.43,51.067 169.628,51.067 167.558,58.201 166.312,58.201 164.858,52.679 163.453,58.201 162.208,58.201 
		160.15,51.067 	"/>
	<path clip-path="url(#SVGID_2_)" fill="#FFFFFF" d="M177.168,48.382h1.199v3.65c0.284-0.359,0.539-0.613,0.767-0.759
		c0.387-0.253,0.867-0.38,1.444-0.38c1.035,0,1.736,0.361,2.106,1.086c0.199,0.395,0.299,0.943,0.299,1.645v4.576h-1.232v-4.496
		c0-0.523-0.065-0.908-0.199-1.152c-0.219-0.391-0.626-0.587-1.227-0.587c-0.497,0-0.948,0.172-1.351,0.514
		c-0.405,0.342-0.607,0.988-0.607,1.938v3.783h-1.199V48.382z"/>
	<path clip-path="url(#SVGID_2_)" fill="#FFFFFF" d="M195.572,51.263c0.473,0.238,0.832,0.545,1.079,0.923
		c0.239,0.359,0.397,0.779,0.477,1.259c0.071,0.328,0.106,0.853,0.106,1.572h-5.188c0.021,0.726,0.191,1.309,0.51,1.746
		c0.316,0.439,0.808,0.658,1.473,0.658c0.621,0,1.118-0.208,1.488-0.622c0.207-0.241,0.353-0.52,0.438-0.837h1.181
		c-0.031,0.262-0.136,0.554-0.312,0.876c-0.175,0.322-0.371,0.585-0.587,0.789c-0.361,0.356-0.808,0.595-1.341,0.72
		c-0.287,0.071-0.611,0.106-0.973,0.106c-0.883,0-1.631-0.323-2.243-0.969c-0.614-0.646-0.92-1.551-0.92-2.715
		c0-1.146,0.309-2.075,0.927-2.791c0.618-0.715,1.425-1.071,2.422-1.071C194.612,50.908,195.102,51.026,195.572,51.263
		 M196.002,54.064c-0.049-0.52-0.161-0.935-0.337-1.245c-0.326-0.577-0.869-0.865-1.631-0.865c-0.546,0-1.004,0.198-1.374,0.595
		c-0.37,0.398-0.565,0.903-0.588,1.516H196.002z"/>
	<path clip-path="url(#SVGID_2_)" fill="#FFFFFF" d="M205.197,51.067h1.141v1.232c0.092-0.239,0.32-0.531,0.685-0.876
		s0.784-0.517,1.259-0.517c0.022,0,0.062,0.003,0.113,0.007c0.054,0.005,0.146,0.014,0.274,0.027v1.265
		c-0.072-0.013-0.138-0.021-0.197-0.026c-0.06-0.004-0.126-0.006-0.196-0.006c-0.604,0-1.067,0.193-1.392,0.582
		c-0.325,0.389-0.487,0.836-0.487,1.343v4.103h-1.199V51.067z"/>
	<path clip-path="url(#SVGID_2_)" fill="#FFFFFF" d="M220.523,51.263c0.473,0.238,0.832,0.545,1.079,0.923
		c0.239,0.359,0.398,0.779,0.477,1.259c0.071,0.328,0.106,0.853,0.106,1.572h-5.188c0.021,0.726,0.191,1.309,0.51,1.746
		c0.316,0.439,0.808,0.658,1.473,0.658c0.621,0,1.118-0.208,1.488-0.622c0.207-0.241,0.353-0.52,0.438-0.837h1.181
		c-0.031,0.262-0.136,0.554-0.312,0.876c-0.175,0.322-0.371,0.585-0.587,0.789c-0.361,0.356-0.808,0.595-1.341,0.72
		c-0.287,0.071-0.611,0.106-0.972,0.106c-0.884,0-1.632-0.323-2.244-0.969c-0.614-0.646-0.92-1.551-0.92-2.715
		c0-1.146,0.309-2.075,0.927-2.791c0.618-0.715,1.425-1.071,2.422-1.071C219.563,50.908,220.053,51.026,220.523,51.263
		 M220.953,54.064c-0.049-0.52-0.16-0.935-0.337-1.245c-0.326-0.577-0.869-0.865-1.631-0.865c-0.546,0-1.004,0.198-1.374,0.595
		c-0.37,0.398-0.565,0.903-0.588,1.516H220.953z"/>
</g>
</svg>
