<?xml version="1.0" encoding="utf-8"?>
<!-- Generator: Adobe Illustrator 18.1.0, SVG Export Plug-In . SVG Version: 6.00 Build 0)  -->
<svg version="1.1" id="Слой_1" xmlns="http://www.w3.org/2000/svg" xmlns:xlink="http://www.w3.org/1999/xlink" x="0px" y="0px"
	 viewBox="0 0 185.062 131.566" enable-background="new 0 0 185.062 131.566" xml:space="preserve">
<g>
	<path fill="#FCFCFD" d="M81.039,115.951c0,0-10.182,15.616-10.58,15.616c-23.013,0-47.224,0-70.459,0C0,87.666,0,43.792,0,0
		l3.064,0.023C26.025,0,48.986-0.002,71.946,0.001l1.381,0.015c0.331,0.569,0.765,1.284,1.096,1.853
		c0.985,1.504,1.996,2.992,2.95,4.516c2.068,3.304,4.106,6.627,6.156,9.942c-21.895,0-43.791,0-65.656,0c0,13.622,0,26.534,0,39.882
		c24.03,0,47.764,0,71.377,0c0,5.363,0,10.277,0,15.653c-24.035,0-47.749,0-71.397,0c0,14.882,0,29.291,0,44.068L81.039,115.951z"/>
	<path fill="#C95D3F" d="M128.732,49.302c6.427-9.689,12.868-19.369,19.278-29.069c4.396-6.653,8.75-13.333,13.204-20.125
		c7.016,0,13.96,0,21.794,0c-14.667,21.57-29.01,42.665-43.516,63.999c15.074,22.277,30.122,44.515,45.571,67.345
		c-7.862,0-14.92,0-22.476,0c-1.112-1.587-2.493-3.433-3.745-5.363c-9.676-14.925-19.323-29.868-28.993-44.796
		c-0.627-0.967-1.372-1.858-2.062-2.784c-2.798-4.813-5.597-9.626-8.361-14.38C122.617,59.043,125.675,54.173,128.732,49.302z"/>
	<path fill="#68B0DC" d="M128.732,49.302c-3.057,4.871-6.115,9.741-9.307,14.827c2.764,4.754,5.563,9.567,8.361,14.38
		c-3.126,4.473-6.327,8.894-9.362,13.427c-8.774,13.103-17.481,26.251-26.379,39.63c-7.061,0-14.323,0-21.585,0
		c4.129-6.059,15.848-23.509,15.848-23.509c-5.443,8.101,11.091-16.063,16.631-24.098c1.939-2.812,3.878-5.625,5.817-8.437
		c2.615-3.793,5.215-7.598,7.852-11.441c-7.669-11.27-15.104-22.28-22.636-33.223c-3.381-4.913-6.956-9.692-10.443-14.531
		c-2.05-3.315-4.088-6.638-6.156-9.942c-0.954-1.524-3.06-4.864-4.045-6.369l4.101-0.001c4.433,0,8.865-0.001,13.298-0.001
		c0.901,0.001,3.763,0.001,4.664,0.002l2.343,3.227c9.248,13.924,18.427,27.893,27.664,41.824
		C126.386,46.56,127.614,47.894,128.732,49.302z"/>
	<path fill="#B2C4D6" d="M93.429,0.017c-0.901-0.001-1.802-0.001-2.703-0.002C91.627,0.016,92.528,0.016,93.429,0.017z"/>
</g>
</svg>
